#!OML:ASF F:\VICON\USERDATA\INSTALL\rory3\rory3.ASF
:FULLY-SPECIFIED
:DEGREES
31
root 0.881708 17.8411 -23.1641 -1.39891 2.59145 2.02377
lowerback 11.7013 -2.85579 -4.24596
upperback -0.760384 -4.21 2.67654
thorax -6.86392 -1.85403 5.96339
lowerneck -13.7388 -2.16354 -3.36311
upperneck 23.6289 -2.03493 -0.848824
head 9.78894 -1.35108 0.016833
rclavicle 4.60683e-014 -3.97569e-015
rhumerus -38.3489 -28.7552 -67.7372
rradius 17.7442
rwrist 15.0874
rhand -20.0742 20.4775
rfingers 7.12502
rthumb 6.26815 -9.40974
lclavicle 4.60683e-014 -3.97569e-015
lhumerus -25.0772 0.577999 83.2799
lradius 31.9239
lwrist 5.00376
lhand -30.2473 24.1529
lfingers 7.12502
lthumb -3.55632 54.103
rfemur -28.072 5.87246 17.7977
rtibia 26.8242
rfoot -3.30588 -8.19049
rtoes 5.3664
lfemur 13.6189 -4.07843 -24.8389
ltibia 28.3215
lfoot -5.47527 -6.74878
ltoes -21.4624
32
root 0.862044 17.8448 -22.9548 -1.4961 2.21952 1.54622
lowerback 11.6299 -2.75838 -3.75122
upperback -0.793378 -3.99796 2.82654
thorax -6.90814 -1.76327 5.80685
lowerneck -13.6988 -2.25491 -3.29733
upperneck 23.6873 -2.13082 -1.0492
head 9.80055 -1.41327 -0.0760279
rclavicle 2.38045e-014 -3.97569e-015
rhumerus -38.67 -29.3699 -67.1231
rradius 17.399
rwrist 15.7509
rhand -20.6139 19.4283
rfingers 7.12502
rthumb 5.74717 -10.4737
lclavicle 2.38045e-014 -3.97569e-015
lhumerus -25.6251 0.885 83.4119
lradius 31.8421
lwrist 4.86187
lhand -29.8497 24.2913
lfingers 7.12502
lthumb -3.17234 54.2474
rfemur -27.776 5.89001 18.5896
rtibia 27.4937
rfoot -2.26261 -6.99198
rtoes 8.08416
lfemur 13.0541 -3.64883 -24.2248
ltibia 30.3046
lfoot -3.42387 -7.64724
ltoes -21.7847
33
root 0.84041 17.8596 -22.7433 -1.62994 1.91887 0.942526
lowerback 11.5789 -2.7712 -3.16588
upperback -0.852202 -3.91588 3.05365
thorax -6.97456 -1.73719 5.70477
lowerneck -13.4002 -2.15304 -3.40696
upperneck 23.6175 -1.97313 -1.0597
head 9.71885 -1.35062 -0.0376143
rclavicle -3.76697e-014 2.38542e-015
rhumerus -38.9293 -29.7876 -66.5209
rradius 17.0565
rwrist 16.4034
rhand -20.7025 19.0335
rfingers 7.12502
rthumb 5.66159 -10.8709
lclavicle -3.76697e-014 2.38542e-015
lhumerus -26.3068 1.45273 83.4711
lradius 31.7063
lwrist 4.84207
lhand -30.353 25.1727
lfingers 7.12502
lthumb -3.65836 55.1211
rfemur -27.3238 5.64317 19.6586
rtibia 28.1474
rfoot -1.35221 -6.14398
rtoes 8.7573
lfemur 12.3702 -3.24875 -23.4192
ltibia 32.3457
lfoot -0.698106 -8.40088
ltoes -18.9163
34
root 0.818853 17.874 -22.5287 -1.74545 2.00342 0.752924
lowerback 11.5707 -3.21231 -3.50617
upperback -1.33666 -4.51435 3.60808
thorax -7.35026 -1.98305 6.61796
lowerneck -11.6409 -1.617 -4.08727
upperneck 23.2339 -1.10999 -1.27951
head 9.24851 -1.02729 0.122717
rclavicle -1.0635e-014 2.3059e-014
rhumerus -39.4206 -28.2916 -65.8494
rradius 16.8308
rwrist 16.666
rhand -20.4674 19.1187
rfingers 7.12502
rthumb 5.88853 -10.7795
lclavicle -1.0635e-014 2.3059e-014
lhumerus -28.2368 3.51039 83.5164
lradius 31.8764
lwrist 4.76561
lhand -30.9771 26.0526
lfingers 7.12502
lthumb -4.261 55.9897
rfemur -26.7784 4.96836 20.2714
rtibia 28.7158
rfoot -1.10294 -5.24193
rtoes 7.0504
lfemur 11.6388 -2.98245 -22.9573
ltibia 34.3652
lfoot 2.12201 -9.59687
ltoes -20.1246
35
root 0.794702 17.9043 -22.3168 -1.82057 2.03915 0.56632
lowerback 11.1219 -2.5728 -2.316
upperback -0.508243 -3.54447 2.82061
thorax -6.45648 -1.61196 4.8658
lowerneck -14.3556 -2.41107 -2.91723
upperneck 23.8495 -2.43199 -0.9811
head 9.9807 -1.51102 -0.163839
rclavicle 3.16565e-014 -1.43125e-014
rhumerus -39.8175 -32.7274 -65.0007
rradius 16.7248
rwrist 18.0471
rhand -19.9598 19.6525
rfingers 7.12502
rthumb 6.37862 -10.2314
lclavicle 3.16565e-014 -1.43125e-014
lhumerus -26.5099 1.09912 83.5149
lradius 31.5274
lwrist 5.00784
lhand -30.7273 25.8708
lfingers 7.12502
lthumb -4.01983 55.8126
rfemur -26.2569 4.55771 20.7847
rtibia 29.2155
rfoot -1.37517 -4.63838
rtoes 5.69191
lfemur 10.7245 -2.59699 -22.4495
ltibia 36.4038
lfoot 5.24142 -10.5791
ltoes -18.897
36
root 0.769348 17.9438 -22.1075 -1.84331 1.8597 0.236675
lowerback 10.924 -2.27815 -1.69131
upperback -0.148296 -3.08215 2.63804
thorax -6.04963 -1.42287 4.21928
lowerneck -15.83 -2.68694 -2.41032
upperneck 24.249 -2.90233 -0.964232
head 10.4021 -1.67917 -0.33046
rclavicle 1.47598e-014 1.98785e-014
rhumerus -39.6955 -33.557 -65.2573
rradius 16.8608
rwrist 17.6689
rhand -19.8597 20.02
rfingers 7.12502
rthumb 6.47521 -9.86102
lclavicle 1.47598e-014 1.98785e-014
lhumerus -26.095 0.62906 83.5462
lradius 31.4285
lwrist 4.87775
lhand -30.3731 25.5043
lfingers 7.12502
lthumb -3.67775 55.4523
rfemur -25.7989 4.69999 21.3647
rtibia 29.6797
rfoot -1.65485 -4.6791
rtoes 7.5536
lfemur 9.62824 -2.20208 -21.8449
ltibia 38.4759
lfoot 8.33328 -11.396
ltoes -16.3839
37
root 0.741311 17.9687 -21.911 -1.84391 1.61191 -0.276004
lowerback 10.8985 -2.18107 -1.22248
upperback -0.211822 -2.88306 2.78025
thorax -6.13459 -1.3345 4.07566
lowerneck -15.7469 -2.70454 -2.45126
upperneck 24.3015 -2.9329 -0.910728
head 10.4071 -1.69086 -0.308069
rclavicle -3.23025e-014 7.95139e-015
rhumerus -39.7568 -32.8196 -65.7099
rradius 17.2505
rwrist 16.5975
rhand -19.8104 19.6058
rfingers 7.12502
rthumb 6.52289 -10.2737
lclavicle -3.23025e-014 7.95139e-015
lhumerus -26.6462 0.888319 83.6589
lradius 31.53
lwrist 5.06693
lhand -30.2144 28.4653
lfingers 7.12502
lthumb -3.52451 58.4159
rfemur -25.2785 4.93145 22.1659
rtibia 29.9835
rfoot -1.88923 -4.72554
rtoes 8.69025
lfemur 8.39126 -1.86429 -21.0581
ltibia 40.6982
lfoot 11.2176 -12.3394
ltoes -13.1548
38
root 0.714887 17.9857 -21.7203 -1.92099 1.54361 -0.769434
lowerback 11.002 -2.23965 -0.887188
upperback -0.353248 -2.89859 3.04184
thorax -6.34512 -1.3427 4.1777
lowerneck -15.2179 -2.60792 -2.70076
upperneck 24.2264 -2.7455 -0.920857
head 10.2815 -1.6297 -0.235831
rclavicle -9.69075e-016 6.36111e-015
rhumerus -39.8578 -32.4753 -65.5276
rradius 17.171
rwrist 16.6421
rhand -19.7681 19.1505
rfingers 7.12502
rthumb 6.56364 -10.7278
lclavicle -9.69075e-016 6.36111e-015
lhumerus -27.3877 1.47617 83.7778
lradius 31.5856
lwrist 5.25526
lhand -30.0679 29.9211
lfingers 7.12502
lthumb -3.38303 59.874
rfemur -24.5851 4.94656 22.945
rtibia 30.1314
rfoot -2.4677 -4.60624
rtoes 9.27187
lfemur 7.05972 -1.74197 -20.3261
ltibia 43.0538
lfoot 14.1364 -13.2796
ltoes -9.58884
39
root 0.689136 18.0008 -21.5263 -2.0931 1.7954 -1.32867
lowerback 11.2636 -2.40483 -0.44412
upperback -0.517073 -3.03615 3.31027
thorax -6.66557 -1.41207 4.25735
lowerneck -14.8786 -2.5515 -2.84591
upperneck 24.2577 -2.59849 -1.08228
head 10.2271 -1.59552 -0.244441
rclavicle 2.90474e-014 0
rhumerus -39.9165 -31.203 -65.8703
rradius 17.3779
rwrist 15.7538
rhand -19.5766 19.5211
rfingers 7.12502
rthumb 6.74851 -10.3514
lclavicle 2.90474e-014 0
lhumerus -28.0825 1.96188 83.8965
lradius 31.3905
lwrist 5.2747
lhand -29.8791 27.7041
lfingers 7.12502
lthumb -3.20068 57.6599
rfemur -23.7662 4.7666 23.7681
rtibia 30.1784
rfoot -3.08567 -4.52706
rtoes 9.45148
lfemur 5.79685 -1.87436 -19.4875
ltibia 45.4797
lfoot 16.61 -14.0758
ltoes -8.02013
40
root 0.66538 18.0214 -21.3354 -2.1854 2.08926 -1.76166
lowerback 11.5729 -2.52034 -0.0950483
upperback -0.732288 -3.11728 3.52058
thorax -7.07186 -1.44998 4.32751
lowerneck -14.6742 -2.56036 -2.90947
upperneck 24.2591 -2.5693 -1.21072
head 10.1879 -1.60342 -0.272319
rclavicle 1.23992e-014 4.05521e-014
rhumerus -39.9503 -29.8281 -66.361
rradius 17.6543
rwrist 14.5434
rhand -19.3247 19.9498
rfingers 7.12502
rthumb 6.99168 -9.91471
lclavicle 1.23992e-014 4.05521e-014
lhumerus -28.7864 2.19669 84.084
lradius 31.198
lwrist 5.13756
lhand -29.5264 25.4506
lfingers 7.12502
lthumb -2.86008 55.4112
rfemur -22.9548 4.62654 24.4176
rtibia 30.0693
rfoot -3.57584 -4.79263
rtoes 10.0892
lfemur 4.42967 -2.17325 -18.8659
ltibia 47.9103
lfoot 19.0837 -14.5283
ltoes -6.49879
41
root 0.641246 18.0508 -21.146 -2.20861 2.23249 -2.13069
lowerback 11.5021 -2.4806 0.352673
upperback -0.689962 -3.00296 3.53781
thorax -7.01701 -1.41152 4.06716
lowerneck -14.8492 -2.66737 -2.7354
upperneck 24.2663 -2.7478 -1.24964
head 10.2214 -1.67373 -0.341283
rclavicle 2.08475e-014 -3.02153e-014
rhumerus -39.7608 -29.3537 -66.9263
rradius 17.9085
rwrist 13.8823
rhand -19.4915 19.881
rfingers 7.12502
rthumb 6.83071 -9.98884
lclavicle 2.08475e-014 -3.02153e-014
lhumerus -29.0656 1.85882 84.2644
lradius 31.2116
lwrist 5.07601
lhand -29.3821 26.3823
lfingers 7.12502
lthumb -2.72069 56.3447
rfemur -22.1267 4.70481 24.9918
rtibia 29.8423
rfoot -3.88752 -5.03503
rtoes 10.5523
lfemur 2.99137 -2.38082 -18.3211
ltibia 50.2445
lfoot 22.2118 -15.1805
ltoes -4.1093
